<?xml version="1.0" encoding="utf-8"?>
<!-- Generator: Adobe Illustrator 16.0.3, SVG Export Plug-In . SVG Version: 6.00 Build 0)  -->
<!DOCTYPE svg PUBLIC "-//W3C//DTD SVG 1.1//EN" "http://www.w3.org/Graphics/SVG/1.1/DTD/svg11.dtd">
<svg version="1.1" id="圖層_1" xmlns="http://www.w3.org/2000/svg" xmlns:xlink="http://www.w3.org/1999/xlink" x="0px" y="0px"
	 width="214.25px" height="70.5px" viewBox="0 0 214.25 70.5" enable-background="new 0 0 214.25 70.5" xml:space="preserve">
<path fill="#FFFFFF" d="M66.756,17.722L55.58,11.251c-3.396-1.932-5.748-0.85-6.061-0.689l-4.505,2.605l10.215,5.896
	c0.524,0.264,2.133,0.988,4.665,1.381c2.144,0.332,4.664,0.209,6.297-0.246C67.955,19.71,68.682,18.833,66.756,17.722z"/>
<path fill="#FFFFFF" d="M66.09,50.292c-1.635-0.431-4.096-0.541-6.195-0.215c-3.133,0.481-4.854,1.478-4.854,1.478l-24.3,14.028
	H30.74c-0.293,0.151-2.646,1.252-6.049-0.678c-0.002,0-0.002,0-0.005-0.003c-0.023-0.012-0.045-0.022-0.069-0.036l7.396,4.268
	c0.964,0.509,2.06,0.8,3.225,0.8c0.001,0,0.001,0,0.001,0c1.165,0,2.262-0.291,3.225-0.8l24.434-14.106
	c0.002,0,3.859-2.229,3.859-2.229C68.719,51.665,67.93,50.773,66.09,50.292z"/>
<path fill="#FFFFFF" d="M62.839,40.628V28.632c0-1.229-0.672-2.299-1.666-2.869c0,0-11.528-6.664-11.626-6.713
	c-0.446-0.225-0.949-0.354-1.482-0.354l0,0c-0.535,0-1.037,0.129-1.483,0.354c-0.099,0.049-11.626,6.713-11.626,6.713
	c-0.994,0.57-1.666,1.641-1.666,2.869V41.88c0,1.188,0.63,2.229,1.572,2.813l11.663,6.733c0.46,0.242,0.982,0.382,1.54,0.382l0,0
	c0.556,0,1.079-0.14,1.539-0.382l8.69-5.018c-5.252-0.345-5.252-5.099-5.252-5.099l0,0c-1.354,1.113-3.088,1.783-4.978,1.783
	c-4.332,0-7.843-3.512-7.843-7.844c0-4.33,3.511-7.842,7.843-7.842c4.331,0,7.842,3.512,7.842,7.842c0,0,0,1.711,0,2.83
	c0,1.121,0.053,5.461,3.374,7.758l0,0c2.857,1.977,5.449,0.576,5.449,0.576S62.839,46.136,62.839,40.628z"/>
<g>
	<path fill="#FFFFFF" d="M107.662,18.94l-3.656,3.656v21.527v6.535v1.592c0,0.469,0.381,0.85,0.852,0.85h5.758
		c0.471,0,0.852-0.381,0.852-0.85v-8.127c0-0.002-0.002-0.002-0.002-0.004V41.3h7.441v2.82c0,0.002,0,0.002,0,0.004v8.127
		c0,0.469,0.381,0.851,0.85,0.851h5.761c0.469,0,0.85-0.382,0.85-0.851v-2.396v-5.731V22.669l-3.73-3.729H107.662z M111.465,33.841
		V26.4h7.441v7.441H111.465z"/>
	<path fill="#FFFFFF" d="M183.68,18.94h-5.76c-0.469,0-0.85,0.381-0.85,0.85v8.127c0,0.002,0,0.002,0,0.004v17.722h-7.441V27.921
		c0-0.002,0.002-0.002,0.002-0.004V19.79c0-0.469-0.381-0.85-0.852-0.85h-5.758c-0.472,0-0.853,0.381-0.853,0.85v2.4v5.727v21.508
		l3.677,3.677h15.01l3.674-3.656V27.917V22.19v-2.4C184.529,19.321,184.148,18.94,183.68,18.94z"/>
	<path fill="#FFFFFF" d="M144.277,18.94h-3.027c-0.471,0-0.852,0.381-0.852,0.85v5.76c0,0.469,0.381,0.85,0.852,0.85h6.748v19.243
		h-7.441v-1.367l0,0v-2.029c0-0.469-0.381-0.85-0.852-0.85h-5.758c-0.471,0-0.852,0.381-0.852,0.85v2.029v3.223v1.91l3.694,3.693
		h14.937l3.729-3.713V18.94h-6.082H144.277z"/>
	<path fill="#FFFFFF" d="M96.496,18.94h-2.578h-5.549h-9.652l-3.729,3.729V49.37l3.729,3.729h9.652H94.5h1.996
		c0.469,0,0.85-0.381,0.85-0.85v-5.76c0-0.469-0.381-0.85-0.85-0.85H94.5h-6.131h-5.924V26.399h5.922h0.002h8.127
		c0.469,0,0.85-0.381,0.85-0.85v-5.76C97.346,19.321,96.965,18.94,96.496,18.94z"/>
	<path fill="#FFFFFF" d="M212.426,18.94h-5.76c-0.469,0-0.85,0.381-0.85,0.85v32.461c0,0.469,0.381,0.851,0.85,0.851h5.76
		c0.469,0,0.85-0.382,0.85-0.851V19.79C213.275,19.321,212.895,18.94,212.426,18.94z"/>
	<path fill="#FFFFFF" d="M197.889,18.94h-5.758c-0.471,0-0.852,0.381-0.852,0.85v32.461c0,0.469,0.381,0.851,0.852,0.851h5.758
		c0.471,0,0.853-0.382,0.853-0.851V19.79C198.74,19.321,198.359,18.94,197.889,18.94z"/>
</g>
<path fill="#FFFFFF" d="M40.255,57.333L17.08,43.954c-2.043,1.797-4.715,2.896-7.649,2.896c-1.851,0-3.593-0.443-5.146-1.216v3.5
	c0,2.492,1.319,4.673,3.294,5.894l14.733,8.508c3.645,2.066,6.085,0.662,6.087,0.662h-0.001L40.255,57.333z"/>
<path fill="#FFFFFF" d="M38.344,1.308c-0.934-0.471-1.988-0.74-3.105-0.74c0,0,0,0-0.001,0c-1.118,0-2.171,0.27-3.106,0.74
	C32.08,1.333,7.776,15.368,7.776,15.368c-2.084,1.197-3.491,3.439-3.491,6.014v3.482c1.553-0.771,3.295-1.215,5.146-1.215
	c2.932,0,5.601,1.096,7.643,2.891L47.087,9.163c0.003,0,2.146-1.232,5.413,0.313C52.316,9.368,38.455,1.362,38.344,1.308z"/>
<path fill="#FFFFFF" d="M9.431,26.521c-4.82,0-8.729,3.908-8.729,8.729c0,4.82,3.909,8.729,8.729,8.729
	c4.82,0,8.728-3.908,8.728-8.729C18.159,30.429,14.251,26.521,9.431,26.521z M9.431,39.169c-2.165,0-3.919-1.756-3.919-3.92
	s1.754-3.92,3.919-3.92c2.164,0,3.918,1.756,3.918,3.92S11.595,39.169,9.431,39.169z"/>
</svg>
